<?xml version="1.0" encoding="UTF-8" ?>
<!DOCTYPE svg PUBLIC "-//W3C//DTD SVG 1.1//EN" "http://www.w3.org/Graphics/SVG/1.1/DTD/svg11.dtd">
<svg width="421.5pt" height="133.5pt" viewBox="0 0 892 283" version="1.1" xmlns="http://www.w3.org/2000/svg">
<g id="#c31328ff">
<path fill="#c31328" opacity="1.00" d=" M 0.00 0.00 L 892.00 0.00 L 892.00 283.00 L 0.00 283.00 L 0.00 0.00 M 341.26 24.29 C 329.01 26.87 319.09 38.32 319.00 50.95 C 318.53 59.13 322.17 67.35 328.25 72.78 C 338.01 81.83 354.18 82.73 364.88 74.82 C 374.50 68.32 378.99 55.38 375.71 44.27 C 371.93 29.78 355.65 20.72 341.26 24.29 M 23.53 35.86 C 23.62 40.23 23.59 44.61 23.57 48.99 C 23.30 53.94 24.22 59.47 28.25 62.80 C 34.18 68.19 42.77 65.95 50.02 66.41 C 56.37 66.83 62.94 63.04 64.78 56.76 C 66.49 49.93 65.42 42.82 65.85 35.86 C 51.74 35.91 37.64 35.91 23.53 35.86 M 79.15 35.85 C 79.35 104.50 79.22 173.15 79.21 241.80 C 95.86 241.75 112.50 241.68 129.15 241.83 C 129.07 206.51 129.16 171.19 129.09 135.87 C 129.15 135.34 129.27 134.30 129.32 133.78 C 142.67 169.74 155.61 205.87 168.91 241.86 C 183.53 241.69 198.17 241.68 212.80 241.87 C 225.09 208.45 237.17 174.96 249.43 141.54 C 250.44 138.90 251.06 136.06 252.71 133.72 C 252.40 169.75 252.71 205.79 252.55 241.83 C 269.18 241.70 285.82 241.72 302.45 241.82 C 302.41 173.16 302.36 104.51 302.47 35.85 C 280.07 35.94 257.66 35.86 235.26 35.89 C 221.18 72.22 206.90 108.48 192.78 144.79 C 192.20 146.34 191.65 147.94 190.60 149.24 C 176.23 111.36 160.99 73.80 146.57 35.93 C 124.10 35.81 101.62 35.97 79.15 35.85 M 23.54 68.71 C 23.58 72.38 23.51 76.04 23.73 79.70 C 25.79 80.19 27.81 80.80 29.84 81.37 C 29.93 85.53 29.83 89.70 29.97 93.86 C 27.83 94.52 25.70 95.16 23.56 95.79 C 23.60 99.39 23.60 103.00 23.54 106.60 C 37.59 101.65 51.57 96.46 65.68 91.68 C 65.76 89.12 65.90 86.55 65.73 83.99 C 64.63 82.97 63.04 82.81 61.70 82.24 C 48.95 77.81 36.29 73.12 23.54 68.71 M 665.50 95.70 C 653.10 97.28 640.92 101.52 630.62 108.69 C 616.57 118.31 606.80 133.63 603.30 150.23 C 599.77 166.74 600.47 184.43 606.78 200.19 C 612.57 215.02 623.99 227.47 638.08 234.82 C 650.62 241.42 664.92 244.58 679.07 244.12 C 695.77 244.53 712.72 239.83 726.48 230.27 C 739.36 221.53 748.60 207.94 752.82 193.03 C 757.21 177.35 757.05 160.43 752.45 144.81 C 748.01 129.56 738.08 115.90 724.61 107.39 C 707.28 96.21 685.70 93.12 665.50 95.70 M 452.00 105.94 C 445.95 111.27 442.19 118.46 438.27 125.35 C 438.57 116.52 438.30 107.68 438.46 98.85 C 423.36 98.90 408.25 98.93 393.15 98.84 C 393.34 146.49 393.21 194.14 393.22 241.79 C 409.14 241.78 425.07 241.65 441.00 241.86 C 441.00 221.55 440.99 201.25 441.00 180.95 C 441.20 170.36 443.11 159.27 449.39 150.49 C 455.02 142.56 464.34 137.58 474.00 136.91 C 479.36 136.59 485.03 136.25 489.91 138.91 C 492.99 125.41 495.86 111.86 498.99 98.37 C 494.98 97.58 491.05 96.41 486.98 95.93 C 474.65 94.10 461.20 97.22 452.00 105.94 M 565.16 104.21 C 557.96 109.69 553.73 117.85 549.25 125.47 C 549.59 116.60 549.29 107.72 549.46 98.85 C 534.49 98.91 519.51 98.91 504.53 98.85 C 504.63 146.50 504.61 194.15 504.54 241.80 C 520.41 241.74 536.28 241.70 552.16 241.82 C 552.05 224.20 552.14 206.59 552.11 188.97 C 551.79 175.62 552.64 161.10 560.91 149.98 C 569.80 137.69 587.20 133.96 601.12 138.53 C 604.15 125.17 607.12 111.78 610.04 98.39 C 604.69 97.23 599.37 95.78 593.88 95.46 C 583.70 95.02 573.12 97.63 565.16 104.21 M 824.51 105.47 C 818.17 110.88 814.30 118.33 810.21 125.41 C 810.64 116.56 810.26 107.70 810.47 98.85 C 795.37 98.92 780.26 98.90 765.16 98.85 C 765.33 146.50 765.23 194.15 765.21 241.80 C 781.14 241.77 797.07 241.64 813.00 241.86 C 813.00 221.57 812.99 201.27 813.00 180.98 C 813.19 170.56 815.04 159.67 821.08 150.94 C 826.49 143.04 835.54 137.91 845.04 137.00 C 850.70 136.60 856.73 136.11 861.91 138.91 C 864.98 125.41 867.87 111.87 870.99 98.38 C 866.63 97.52 862.37 96.21 857.94 95.80 C 846.12 94.27 833.47 97.39 824.51 105.47 M 323.00 98.84 C 323.00 146.51 323.00 194.19 323.00 241.86 C 339.59 241.64 356.19 241.77 372.79 241.80 C 372.77 194.15 372.67 146.50 372.84 98.85 C 356.23 98.90 339.61 98.93 323.00 98.84 M 23.51 110.23 C 23.61 113.75 23.61 117.27 23.51 120.79 C 37.61 120.75 51.70 120.72 65.79 120.80 C 65.75 117.27 65.75 113.74 65.80 110.21 C 51.70 110.28 37.61 110.23 23.51 110.23 M 23.51 130.22 C 23.65 139.41 23.62 148.61 23.53 157.80 C 26.69 157.74 29.84 157.74 33.00 157.86 C 33.00 152.02 33.00 146.19 32.99 140.35 C 43.93 140.51 54.86 140.32 65.80 140.46 C 65.75 137.05 65.76 133.63 65.79 130.22 C 51.70 130.27 37.60 130.25 23.51 130.22 M 40.84 165.00 C 35.06 165.01 29.29 165.00 23.51 165.00 C 23.61 168.38 23.61 171.77 23.54 175.15 C 28.72 175.13 33.90 175.06 39.08 175.12 C 40.39 175.03 41.54 175.72 42.69 176.25 C 50.38 180.17 58.13 183.97 65.84 187.88 C 65.72 184.01 65.91 180.14 65.56 176.29 C 60.53 174.50 55.73 172.14 50.74 170.25 C 55.67 167.93 60.70 165.83 65.75 163.80 C 65.76 160.00 65.75 156.20 65.83 152.41 C 57.52 156.63 49.10 160.67 40.84 165.00 Z" />
<path fill="#c31328" opacity="1.00" d=" M 33.00 45.99 C 40.77 46.00 48.55 46.00 56.32 46.00 C 56.12 49.40 57.07 54.51 52.76 55.71 C 47.90 56.54 42.91 56.33 38.00 56.03 C 35.79 56.16 34.38 54.28 32.97 52.90 C 33.00 50.60 33.00 48.30 33.00 45.99 Z" />
<path fill="#c31328" opacity="1.00" d=" M 38.40 84.26 C 41.96 85.45 45.50 86.70 49.16 87.60 C 45.73 89.29 41.98 90.14 38.33 91.19 C 38.37 88.88 38.39 86.57 38.40 84.26 Z" />
<path fill="#c31328" opacity="1.00" d=" M 674.58 135.81 C 683.18 135.09 692.53 136.95 698.87 143.17 C 706.13 149.98 708.48 160.42 708.26 170.05 C 708.41 179.87 705.62 190.41 698.17 197.24 C 690.57 204.14 679.40 205.47 669.69 203.31 C 662.49 201.65 656.28 196.57 653.04 189.96 C 648.77 181.64 648.40 171.99 649.16 162.85 C 650.05 155.54 652.48 148.05 657.86 142.78 C 662.31 138.49 668.40 135.98 674.58 135.81 Z" />
</g>
<g id="#ffffffff">
<path fill="#ffffff" opacity="1.00" d=" M 341.26 24.29 C 355.65 20.72 371.93 29.78 375.71 44.27 C 378.99 55.38 374.50 68.32 364.88 74.82 C 354.18 82.73 338.01 81.83 328.25 72.78 C 322.17 67.35 318.53 59.13 319.00 50.95 C 319.09 38.32 329.01 26.87 341.26 24.29 Z" />
<path fill="#ffffff" opacity="1.00" d=" M 23.53 35.86 C 37.64 35.91 51.74 35.91 65.85 35.86 C 65.42 42.82 66.49 49.93 64.78 56.76 C 62.94 63.04 56.37 66.83 50.02 66.41 C 42.77 65.95 34.18 68.19 28.25 62.80 C 24.22 59.47 23.30 53.94 23.57 48.99 C 23.59 44.61 23.62 40.23 23.53 35.86 M 33.00 45.99 C 33.00 48.30 33.00 50.60 32.97 52.90 C 34.38 54.28 35.79 56.16 38.00 56.03 C 42.91 56.33 47.90 56.54 52.76 55.71 C 57.07 54.51 56.12 49.40 56.32 46.00 C 48.55 46.00 40.77 46.00 33.00 45.99 Z" />
<path fill="#ffffff" opacity="1.00" d=" M 79.15 35.85 C 101.62 35.97 124.10 35.81 146.57 35.93 C 160.99 73.80 176.23 111.36 190.60 149.24 C 191.65 147.94 192.20 146.34 192.78 144.79 C 206.90 108.48 221.18 72.22 235.26 35.89 C 257.66 35.86 280.07 35.94 302.47 35.85 C 302.36 104.51 302.41 173.16 302.45 241.82 C 285.82 241.72 269.18 241.70 252.55 241.83 C 252.71 205.79 252.40 169.75 252.71 133.72 C 251.06 136.06 250.44 138.90 249.43 141.54 C 237.17 174.96 225.09 208.45 212.80 241.87 C 198.17 241.68 183.53 241.69 168.91 241.86 C 155.61 205.87 142.67 169.74 129.32 133.78 C 129.27 134.30 129.15 135.34 129.09 135.87 C 129.16 171.19 129.07 206.51 129.15 241.83 C 112.50 241.68 95.86 241.75 79.21 241.80 C 79.22 173.15 79.35 104.50 79.15 35.85 Z" />
<path fill="#ffffff" opacity="1.00" d=" M 23.54 68.71 C 36.29 73.12 48.95 77.81 61.70 82.24 C 63.04 82.81 64.63 82.97 65.73 83.99 C 65.90 86.55 65.76 89.12 65.68 91.68 C 51.57 96.46 37.59 101.65 23.54 106.60 C 23.60 103.00 23.60 99.39 23.56 95.79 C 25.70 95.16 27.83 94.52 29.97 93.86 C 29.83 89.70 29.93 85.53 29.84 81.37 C 27.81 80.80 25.79 80.19 23.73 79.70 C 23.51 76.04 23.58 72.38 23.54 68.71 M 38.40 84.26 C 38.39 86.57 38.37 88.88 38.33 91.19 C 41.98 90.14 45.73 89.29 49.16 87.60 C 45.50 86.70 41.96 85.45 38.40 84.26 Z" />
<path fill="#ffffff" opacity="1.00" d=" M 665.50 95.70 C 685.70 93.12 707.28 96.21 724.61 107.39 C 738.08 115.90 748.01 129.56 752.45 144.81 C 757.05 160.43 757.21 177.35 752.82 193.03 C 748.60 207.94 739.36 221.53 726.48 230.27 C 712.72 239.83 695.77 244.53 679.07 244.12 C 664.92 244.58 650.62 241.42 638.08 234.82 C 623.99 227.47 612.57 215.02 606.78 200.19 C 600.47 184.43 599.77 166.74 603.30 150.23 C 606.80 133.63 616.57 118.31 630.62 108.69 C 640.92 101.52 653.10 97.28 665.50 95.70 M 674.58 135.81 C 668.40 135.98 662.31 138.49 657.86 142.78 C 652.48 148.05 650.05 155.54 649.16 162.85 C 648.40 171.99 648.77 181.64 653.04 189.96 C 656.28 196.57 662.49 201.65 669.69 203.31 C 679.40 205.47 690.57 204.14 698.17 197.24 C 705.62 190.41 708.41 179.87 708.26 170.05 C 708.48 160.42 706.13 149.98 698.87 143.17 C 692.53 136.95 683.18 135.09 674.58 135.81 Z" />
<path fill="#ffffff" opacity="1.00" d=" M 452.00 105.94 C 461.20 97.22 474.65 94.10 486.98 95.93 C 491.05 96.41 494.98 97.58 498.99 98.37 C 495.86 111.86 492.99 125.41 489.91 138.91 C 485.03 136.25 479.36 136.59 474.00 136.91 C 464.34 137.58 455.02 142.56 449.39 150.49 C 443.11 159.27 441.20 170.36 441.00 180.95 C 440.99 201.25 441.00 221.55 441.00 241.86 C 425.07 241.65 409.14 241.78 393.22 241.79 C 393.21 194.14 393.34 146.49 393.15 98.84 C 408.25 98.93 423.36 98.90 438.46 98.85 C 438.30 107.68 438.57 116.52 438.27 125.35 C 442.19 118.46 445.95 111.27 452.00 105.94 Z" />
<path fill="#ffffff" opacity="1.00" d=" M 565.16 104.21 C 573.12 97.63 583.70 95.02 593.88 95.46 C 599.37 95.78 604.69 97.23 610.04 98.39 C 607.12 111.78 604.15 125.17 601.12 138.53 C 587.20 133.96 569.80 137.69 560.91 149.98 C 552.64 161.10 551.79 175.62 552.11 188.97 C 552.14 206.59 552.05 224.20 552.16 241.82 C 536.28 241.70 520.41 241.74 504.54 241.80 C 504.61 194.15 504.63 146.50 504.53 98.85 C 519.51 98.91 534.49 98.91 549.46 98.85 C 549.29 107.72 549.59 116.60 549.25 125.47 C 553.73 117.85 557.96 109.69 565.16 104.21 Z" />
<path fill="#ffffff" opacity="1.00" d=" M 824.51 105.47 C 833.47 97.39 846.12 94.27 857.94 95.80 C 862.37 96.21 866.63 97.52 870.99 98.38 C 867.87 111.87 864.98 125.41 861.91 138.91 C 856.73 136.11 850.70 136.60 845.04 137.00 C 835.54 137.91 826.49 143.04 821.08 150.94 C 815.04 159.67 813.19 170.56 813.00 180.98 C 812.99 201.27 813.00 221.57 813.00 241.86 C 797.07 241.64 781.14 241.77 765.21 241.80 C 765.23 194.15 765.33 146.50 765.16 98.85 C 780.26 98.90 795.37 98.92 810.47 98.85 C 810.26 107.70 810.64 116.56 810.21 125.41 C 814.30 118.33 818.17 110.88 824.51 105.47 Z" />
<path fill="#ffffff" opacity="1.00" d=" M 323.00 98.84 C 339.61 98.93 356.23 98.90 372.84 98.85 C 372.67 146.50 372.77 194.15 372.79 241.80 C 356.19 241.77 339.59 241.64 323.00 241.86 C 323.00 194.19 323.00 146.51 323.00 98.84 Z" />
<path fill="#ffffff" opacity="1.00" d=" M 23.51 110.23 C 37.61 110.23 51.70 110.28 65.80 110.21 C 65.75 113.74 65.75 117.27 65.79 120.80 C 51.70 120.72 37.61 120.75 23.51 120.79 C 23.61 117.27 23.61 113.75 23.51 110.23 Z" />
<path fill="#ffffff" opacity="1.00" d=" M 23.51 130.22 C 37.60 130.25 51.70 130.27 65.79 130.22 C 65.76 133.63 65.75 137.05 65.80 140.46 C 54.86 140.32 43.93 140.51 32.99 140.35 C 33.00 146.19 33.00 152.02 33.00 157.86 C 29.84 157.74 26.69 157.74 23.53 157.80 C 23.62 148.61 23.65 139.41 23.51 130.22 Z" />
<path fill="#ffffff" opacity="1.00" d=" M 40.84 165.00 C 49.10 160.67 57.52 156.63 65.83 152.41 C 65.75 156.20 65.76 160.00 65.75 163.80 C 60.70 165.83 55.67 167.93 50.74 170.25 C 55.73 172.14 60.53 174.50 65.56 176.29 C 65.91 180.14 65.72 184.01 65.84 187.88 C 58.13 183.97 50.38 180.17 42.69 176.25 C 41.54 175.72 40.39 175.03 39.08 175.12 C 33.90 175.06 28.72 175.13 23.54 175.15 C 23.61 171.77 23.61 168.38 23.51 165.00 C 29.29 165.00 35.06 165.01 40.84 165.00 Z" />
</g>
</svg>
