<svg xmlns="http://www.w3.org/2000/svg" viewBox="0 0 439.68 77.28">
<title>RTL logo</title>
    <rect width="137.4" height="77.28" fill="#0336EE" clip-rule="evenodd" fill-rule="evenodd" id="svg_3" y="0" x="0"/>
    <path d="m74.65,37.08c5.9,0 8.77,-1.9 8.77,-5.78s-2.87,-5.73 -8.77,-5.73l-25.85,0l0,11.51l25.85,0zm-35.41,-19.32l36.66,0c11.16,0 17.37,5.01 17.37,13.42c0,7.22 -4.66,12.05 -12.6,13.19l17.97,15.15l-13.79,0l-16.9,-14.62l-19.15,0l0,14.62l-9.56,0l0,-41.76z" fill="#FFFFFF" clip-rule="evenodd" fill-rule="evenodd" id="svg_4" />
    <rect x="302.28" width="137.4" height="77.28" fill="#9624BB" clip-rule="evenodd" fill-rule="evenodd" id="svg_6" y="0"/>
    <polygon points="345.11998891830444,17.76000213623047 354.6599974632263,17.76000213623047 354.6599974632263,51.290000915527344 397.07998037338257,51.290000915527344 397.07998037338257,59.519996643066406 345.11998891830444,59.519996643066406 " fill="#FFFFFF" clip-rule="evenodd" fill-rule="evenodd" id="svg_7" />
    <rect x="151.2" width="137.28" height="77.28" fill="#03AAED" clip-rule="evenodd" fill-rule="evenodd" id="svg_9" y="0"/>
    <polygon points="215.0700011253357,25.98999786376953 190.92000722885132,25.98999786376953 190.92000722885132,17.76000213623047 248.76000356674194,17.76000213623047 248.76000356674194,25.98999786376953 224.6099944114685,25.98999786376953 224.6099944114685,59.519996643066406 215.0700011253357,59.519996643066406 " fill="#FFFFFF" clip-rule="evenodd" fill-rule="evenodd" id="svg_10" />
</svg>